<mxfile host="app.diagrams.net" modified="2023-09-20T21:35:24.677Z" agent="Mozilla/5.0 (Windows NT 10.0; Win64; x64) AppleWebKit/537.36 (KHTML, like Gecko) Chrome/116.0.0.0 Safari/537.36" etag="L3Rtgd63Wlf09YWEawMO" version="21.8.0" type="gitlab">
  <diagram id="C5RBs43oDa-KdzZeNtuy" name="Page-1">
    <mxGraphModel dx="712" dy="772" grid="1" gridSize="10" guides="1" tooltips="1" connect="1" arrows="1" fold="1" page="1" pageScale="1" pageWidth="827" pageHeight="1169" math="0" shadow="0">
      <root>
        <mxCell id="WIyWlLk6GJQsqaUBKTNV-0" />
        <mxCell id="WIyWlLk6GJQsqaUBKTNV-1" parent="WIyWlLk6GJQsqaUBKTNV-0" />
        <mxCell id="cXY6cQR4uS1OFrRYrlzV-3" value="" style="edgeStyle=orthogonalEdgeStyle;rounded=0;orthogonalLoop=1;jettySize=auto;html=1;" edge="1" parent="WIyWlLk6GJQsqaUBKTNV-1" source="cXY6cQR4uS1OFrRYrlzV-0" target="cXY6cQR4uS1OFrRYrlzV-2">
          <mxGeometry relative="1" as="geometry" />
        </mxCell>
        <mxCell id="cXY6cQR4uS1OFrRYrlzV-0" value="START" style="ellipse;whiteSpace=wrap;html=1;" vertex="1" parent="WIyWlLk6GJQsqaUBKTNV-1">
          <mxGeometry x="260" y="90" width="120" height="80" as="geometry" />
        </mxCell>
        <mxCell id="cXY6cQR4uS1OFrRYrlzV-20" style="edgeStyle=orthogonalEdgeStyle;rounded=0;orthogonalLoop=1;jettySize=auto;html=1;exitX=0.5;exitY=1;exitDx=0;exitDy=0;entryX=0.5;entryY=0;entryDx=0;entryDy=0;" edge="1" parent="WIyWlLk6GJQsqaUBKTNV-1" source="cXY6cQR4uS1OFrRYrlzV-2" target="cXY6cQR4uS1OFrRYrlzV-5">
          <mxGeometry relative="1" as="geometry" />
        </mxCell>
        <mxCell id="cXY6cQR4uS1OFrRYrlzV-21" value="C" style="edgeLabel;html=1;align=center;verticalAlign=middle;resizable=0;points=[];" vertex="1" connectable="0" parent="cXY6cQR4uS1OFrRYrlzV-20">
          <mxGeometry x="-0.1857" relative="1" as="geometry">
            <mxPoint as="offset" />
          </mxGeometry>
        </mxCell>
        <mxCell id="cXY6cQR4uS1OFrRYrlzV-2" value="Enter action" style="rhombus;whiteSpace=wrap;html=1;" vertex="1" parent="WIyWlLk6GJQsqaUBKTNV-1">
          <mxGeometry x="280" y="250" width="80" height="80" as="geometry" />
        </mxCell>
        <mxCell id="cXY6cQR4uS1OFrRYrlzV-22" style="edgeStyle=orthogonalEdgeStyle;rounded=0;orthogonalLoop=1;jettySize=auto;html=1;exitX=0.25;exitY=1;exitDx=0;exitDy=0;entryX=0.5;entryY=0;entryDx=0;entryDy=0;" edge="1" parent="WIyWlLk6GJQsqaUBKTNV-1" source="cXY6cQR4uS1OFrRYrlzV-5" target="cXY6cQR4uS1OFrRYrlzV-7">
          <mxGeometry relative="1" as="geometry" />
        </mxCell>
        <mxCell id="cXY6cQR4uS1OFrRYrlzV-23" style="edgeStyle=orthogonalEdgeStyle;rounded=0;orthogonalLoop=1;jettySize=auto;html=1;entryX=0.5;entryY=0;entryDx=0;entryDy=0;" edge="1" parent="WIyWlLk6GJQsqaUBKTNV-1" source="cXY6cQR4uS1OFrRYrlzV-5" target="cXY6cQR4uS1OFrRYrlzV-9">
          <mxGeometry relative="1" as="geometry" />
        </mxCell>
        <mxCell id="cXY6cQR4uS1OFrRYrlzV-24" style="edgeStyle=orthogonalEdgeStyle;rounded=0;orthogonalLoop=1;jettySize=auto;html=1;exitX=0.75;exitY=1;exitDx=0;exitDy=0;entryX=0.5;entryY=0;entryDx=0;entryDy=0;" edge="1" parent="WIyWlLk6GJQsqaUBKTNV-1" source="cXY6cQR4uS1OFrRYrlzV-5" target="cXY6cQR4uS1OFrRYrlzV-11">
          <mxGeometry relative="1" as="geometry" />
        </mxCell>
        <mxCell id="cXY6cQR4uS1OFrRYrlzV-5" value="print &quot;Crafting Recipes:&quot;" style="rounded=0;whiteSpace=wrap;html=1;" vertex="1" parent="WIyWlLk6GJQsqaUBKTNV-1">
          <mxGeometry x="260" y="470" width="120" height="60" as="geometry" />
        </mxCell>
        <mxCell id="cXY6cQR4uS1OFrRYrlzV-7" value="print &quot;1. Craft Wooden Planks : 2 Wood&quot;" style="rounded=0;whiteSpace=wrap;html=1;" vertex="1" parent="WIyWlLk6GJQsqaUBKTNV-1">
          <mxGeometry x="150" y="620" width="120" height="60" as="geometry" />
        </mxCell>
        <mxCell id="cXY6cQR4uS1OFrRYrlzV-9" value="print &quot;3. Craft Iron Ingot : 3 Iron Ore&quot;" style="rounded=0;whiteSpace=wrap;html=1;" vertex="1" parent="WIyWlLk6GJQsqaUBKTNV-1">
          <mxGeometry x="260" y="760" width="120" height="60" as="geometry" />
        </mxCell>
        <mxCell id="cXY6cQR4uS1OFrRYrlzV-11" value="print &quot;2. Craft Stick : 1 Wood&quot;" style="rounded=0;whiteSpace=wrap;html=1;" vertex="1" parent="WIyWlLk6GJQsqaUBKTNV-1">
          <mxGeometry x="370" y="620" width="120" height="60" as="geometry" />
        </mxCell>
      </root>
    </mxGraphModel>
  </diagram>
</mxfile>
